<svg width="80" height="80" viewBox="0 0 80 80" fill="none" xmlns="http://www.w3.org/2000/svg">
<circle cx="40" cy="40" r="40" fill="#26CE7D"/>
<circle cx="40.0001" cy="40" r="35.2143" fill="#26CE7D" stroke="white"/>
<rect x="27.1429" y="27.1024" width="26.5322" height="26.5322" fill="white"/>
<path d="M54.2857 22.8571H25.7143C24.9566 22.8571 24.2299 23.1582 23.6941 23.694C23.1582 24.2298 22.8572 24.9565 22.8572 25.7143V54.2857C22.8572 55.0435 23.1582 55.7702 23.6941 56.306C24.2299 56.8418 24.9566 57.1429 25.7143 57.1429H54.2857C55.0435 57.1429 55.7702 56.8418 56.306 56.306C56.8418 55.7702 57.1429 55.0435 57.1429 54.2857V25.7143C57.1429 24.9565 56.8418 24.2298 56.306 23.694C55.7702 23.1582 55.0435 22.8571 54.2857 22.8571ZM48.5715 41.7143H41.7428V48.5714C41.7428 49.0261 41.5623 49.4621 41.2408 49.7836C40.9193 50.1051 40.4833 50.2857 40.0286 50.2857C39.574 50.2857 39.1378 50.1051 38.8163 49.7836C38.4948 49.4621 38.3142 49.0261 38.3142 48.5714V41.7143H31.4572C31.0025 41.7143 30.5664 41.5337 30.2449 41.2122C29.9234 40.8907 29.7428 40.4547 29.7428 40C29.7428 39.5453 29.9234 39.1093 30.2449 38.7878C30.5664 38.4663 31.0025 38.2857 31.4572 38.2857H38.3142V31.4286C38.3142 30.9739 38.4948 30.5379 38.8163 30.2164C39.1378 29.8949 39.574 29.7143 40.0286 29.7143C40.4833 29.7143 40.9193 29.8949 41.2408 30.2164C41.5623 30.5379 41.7428 30.9739 41.7428 31.4286V38.2428H48.6001C49.0547 38.2428 49.4907 38.4235 49.8122 38.7449C50.1337 39.0664 50.3143 39.5025 50.3143 39.9571C50.3143 40.4118 50.1337 40.8478 49.8122 41.1693C49.4907 41.4908 49.0547 41.6714 48.6001 41.6714L48.5715 41.7143Z" fill="#26CE7D"/>
</svg>
