<svg width="214" height="132" viewBox="0 0 214 132" fill="none" xmlns="http://www.w3.org/2000/svg">
<path d="M1.97705 103.158H10.8623C13.1126 103.158 14.9341 103.844 16.3267 105.216C17.7293 106.589 18.4307 108.395 18.4307 110.635C18.4307 112.865 17.7091 114.672 16.2661 116.054C14.8231 117.427 12.9461 118.113 10.6353 118.113H6.54834V125H1.97705V103.158ZM6.54834 106.775V114.541H9.63623C10.9481 114.541 11.9673 114.202 12.6938 113.526C13.4204 112.85 13.7837 111.892 13.7837 110.65C13.7837 109.409 13.4204 108.456 12.6938 107.79C11.9774 107.113 10.9632 106.775 9.65137 106.775H6.54834ZM20.2617 125V108.773H24.5303V111.695H24.6211C24.9036 110.666 25.3779 109.878 26.0439 109.333C26.71 108.789 27.5223 108.516 28.481 108.516C28.9451 108.516 29.3639 108.572 29.7373 108.683V112.573C29.3236 112.401 28.7887 112.315 28.1328 112.315C27.043 112.315 26.1953 112.633 25.5898 113.269C24.9844 113.905 24.6816 114.793 24.6816 115.933V125H20.2617ZM37.7896 111.695C36.8309 111.695 36.0286 112.023 35.3828 112.679C34.7471 113.335 34.3888 114.172 34.3081 115.191H41.1953C41.1449 114.152 40.8068 113.309 40.1812 112.664C39.5656 112.018 38.7684 111.695 37.7896 111.695ZM41.2559 120.035H45.3125C45.0703 121.63 44.2731 122.916 42.9209 123.895C41.5788 124.864 39.9087 125.348 37.9106 125.348C35.4181 125.348 33.4604 124.601 32.0376 123.108C30.6248 121.614 29.9185 119.566 29.9185 116.962C29.9185 114.369 30.6248 112.3 32.0376 110.756C33.4504 109.202 35.3525 108.425 37.7441 108.425C40.0954 108.425 41.9673 109.162 43.3599 110.635C44.7524 112.109 45.4487 114.081 45.4487 116.554V117.901H34.2627V118.173C34.2627 119.334 34.6007 120.277 35.2769 121.004C35.9631 121.72 36.8662 122.079 37.9863 122.079C38.7936 122.079 39.4899 121.897 40.0752 121.534C40.6605 121.16 41.054 120.661 41.2559 120.035ZM46.9619 113.542C46.9619 111.998 47.5825 110.761 48.8237 109.833C50.0649 108.895 51.7249 108.425 53.8037 108.425C55.832 108.425 57.4618 108.9 58.6929 109.848C59.924 110.797 60.5547 112.058 60.585 113.632H56.5132C56.4627 112.976 56.1903 112.462 55.6958 112.088C55.2114 111.715 54.5605 111.528 53.7432 111.528C52.9762 111.528 52.3607 111.69 51.8965 112.013C51.4424 112.326 51.2153 112.744 51.2153 113.269C51.2153 114.056 51.9217 114.616 53.3345 114.949L56.4375 115.615C58.0622 115.979 59.2277 116.508 59.9341 117.205C60.6506 117.891 61.0088 118.839 61.0088 120.05C61.0088 121.645 60.3428 122.926 59.0107 123.895C57.6787 124.864 55.938 125.348 53.7886 125.348C51.6493 125.348 49.9388 124.874 48.6572 123.925C47.3757 122.977 46.6743 121.7 46.5532 120.096H50.8672C50.9782 120.782 51.291 121.312 51.8057 121.685C52.3304 122.058 53.0317 122.245 53.9097 122.245C54.7472 122.245 55.4032 122.094 55.8774 121.791C56.3618 121.478 56.604 121.054 56.604 120.52C56.604 120.106 56.4526 119.778 56.1499 119.536C55.8472 119.283 55.3325 119.071 54.606 118.9L51.6089 118.234C48.5109 117.528 46.9619 115.963 46.9619 113.542ZM62.7944 125V108.773H67.2144V125H62.7944ZM66.6846 106.321C66.2305 106.765 65.6704 106.987 65.0044 106.987C64.3384 106.987 63.7783 106.765 63.3242 106.321C62.8701 105.877 62.6431 105.337 62.6431 104.702C62.6431 104.056 62.8701 103.516 63.3242 103.082C63.7783 102.638 64.3384 102.416 65.0044 102.416C65.6704 102.416 66.2305 102.638 66.6846 103.082C67.1387 103.516 67.3657 104.056 67.3657 104.702C67.3657 105.337 67.1387 105.877 66.6846 106.321ZM69.3633 125V122.487L77.4463 112.24V112.149H69.4844V108.773H82.5776V111.574L74.979 121.534V121.609H82.7593V125H69.3633ZM91.8257 111.695C90.867 111.695 90.0648 112.023 89.4189 112.679C88.7832 113.335 88.425 114.172 88.3442 115.191H95.2314C95.181 114.152 94.8429 113.309 94.2173 112.664C93.6017 112.018 92.8045 111.695 91.8257 111.695ZM95.292 120.035H99.3486C99.1064 121.63 98.3092 122.916 96.957 123.895C95.6149 124.864 93.9448 125.348 91.9468 125.348C89.4543 125.348 87.4966 124.601 86.0737 123.108C84.661 121.614 83.9546 119.566 83.9546 116.962C83.9546 114.369 84.661 112.3 86.0737 110.756C87.4865 109.202 89.3887 108.425 91.7803 108.425C94.1315 108.425 96.0034 109.162 97.396 110.635C98.7886 112.109 99.4849 114.081 99.4849 116.554V117.901H88.2988V118.173C88.2988 119.334 88.6369 120.277 89.313 121.004C89.9992 121.72 90.9023 122.079 92.0225 122.079C92.8298 122.079 93.526 121.897 94.1113 121.534C94.6966 121.16 95.0902 120.661 95.292 120.035ZM116.952 125.378C113.763 125.378 111.24 124.374 109.383 122.366C107.537 120.348 106.613 117.583 106.613 114.071C106.613 110.57 107.542 107.815 109.398 105.807C111.255 103.788 113.773 102.779 116.952 102.779C118.687 102.779 120.262 103.122 121.674 103.809C123.097 104.495 124.237 105.464 125.095 106.715C125.953 107.966 126.437 109.394 126.548 110.999H122.098C121.886 109.656 121.306 108.582 120.357 107.774C119.419 106.967 118.284 106.563 116.952 106.563C115.226 106.563 113.849 107.24 112.819 108.592C111.79 109.944 111.275 111.765 111.275 114.056C111.275 116.387 111.785 118.229 112.804 119.581C113.823 120.923 115.211 121.594 116.967 121.594C118.319 121.594 119.454 121.221 120.373 120.474C121.291 119.727 121.871 118.708 122.113 117.417H126.563C126.311 119.848 125.317 121.786 123.582 123.229C121.846 124.662 119.636 125.378 116.952 125.378ZM134.691 122.063C135.67 122.063 136.498 121.781 137.174 121.216C137.86 120.641 138.203 119.919 138.203 119.051V117.871L134.782 118.083C133.955 118.143 133.314 118.35 132.86 118.703C132.416 119.056 132.194 119.521 132.194 120.096C132.194 120.701 132.421 121.181 132.875 121.534C133.329 121.887 133.935 122.063 134.691 122.063ZM133.238 125.257C131.674 125.257 130.377 124.798 129.348 123.88C128.319 122.962 127.804 121.781 127.804 120.338C127.804 118.865 128.349 117.709 129.439 116.872C130.529 116.034 132.088 115.555 134.116 115.434L138.203 115.191V114.117C138.203 113.37 137.956 112.785 137.461 112.361C136.977 111.937 136.316 111.725 135.479 111.725C134.671 111.725 134.01 111.907 133.496 112.27C132.991 112.633 132.683 113.123 132.572 113.738H128.531C128.611 112.144 129.293 110.862 130.574 109.894C131.856 108.915 133.556 108.425 135.675 108.425C137.754 108.425 139.419 108.92 140.67 109.909C141.922 110.898 142.547 112.209 142.547 113.844V125H138.279V122.518H138.188C137.744 123.365 137.068 124.036 136.16 124.531C135.251 125.015 134.278 125.257 133.238 125.257ZM144.908 125V108.773H149.177V111.71H149.268C149.611 110.721 150.196 109.934 151.023 109.349C151.851 108.763 152.81 108.471 153.899 108.471C155.07 108.471 156.049 108.763 156.836 109.349C157.623 109.924 158.153 110.741 158.425 111.801H158.516C158.879 110.782 159.51 109.974 160.408 109.379C161.316 108.773 162.366 108.471 163.557 108.471C165.151 108.471 166.433 108.97 167.401 109.969C168.38 110.968 168.87 112.285 168.87 113.92V125H164.45V115.025C164.45 114.086 164.223 113.37 163.769 112.875C163.314 112.371 162.659 112.119 161.801 112.119C160.963 112.119 160.287 112.396 159.772 112.951C159.268 113.506 159.016 114.238 159.016 115.146V125H154.762V114.889C154.762 114.021 154.53 113.345 154.066 112.86C153.602 112.366 152.961 112.119 152.144 112.119C151.306 112.119 150.625 112.406 150.1 112.981C149.585 113.557 149.328 114.298 149.328 115.207V125H144.908ZM178.451 111.695C177.492 111.695 176.69 112.023 176.044 112.679C175.408 113.335 175.05 114.172 174.969 115.191H181.856C181.806 114.152 181.468 113.309 180.842 112.664C180.227 112.018 179.43 111.695 178.451 111.695ZM181.917 120.035H185.974C185.731 121.63 184.934 122.916 183.582 123.895C182.24 124.864 180.57 125.348 178.572 125.348C176.079 125.348 174.122 124.601 172.699 123.108C171.286 121.614 170.58 119.566 170.58 116.962C170.58 114.369 171.286 112.3 172.699 110.756C174.111 109.202 176.014 108.425 178.405 108.425C180.757 108.425 182.628 109.162 184.021 110.635C185.414 112.109 186.11 114.081 186.11 116.554V117.901H174.924V118.173C174.924 119.334 175.262 120.277 175.938 121.004C176.624 121.72 177.527 122.079 178.647 122.079C179.455 122.079 180.151 121.897 180.736 121.534C181.322 121.16 181.715 120.661 181.917 120.035ZM187.896 125V108.773H192.164V111.695H192.255C192.537 110.666 193.012 109.878 193.678 109.333C194.344 108.789 195.156 108.516 196.115 108.516C196.579 108.516 196.998 108.572 197.371 108.683V112.573C196.957 112.401 196.423 112.315 195.767 112.315C194.677 112.315 193.829 112.633 193.224 113.269C192.618 113.905 192.315 114.793 192.315 115.933V125H187.896ZM204.561 122.063C205.539 122.063 206.367 121.781 207.043 121.216C207.729 120.641 208.072 119.919 208.072 119.051V117.871L204.651 118.083C203.824 118.143 203.183 118.35 202.729 118.703C202.285 119.056 202.063 119.521 202.063 120.096C202.063 120.701 202.29 121.181 202.744 121.534C203.198 121.887 203.804 122.063 204.561 122.063ZM203.107 125.257C201.543 125.257 200.247 124.798 199.217 123.88C198.188 122.962 197.673 121.781 197.673 120.338C197.673 118.865 198.218 117.709 199.308 116.872C200.398 116.034 201.957 115.555 203.985 115.434L208.072 115.191V114.117C208.072 113.37 207.825 112.785 207.331 112.361C206.846 111.937 206.185 111.725 205.348 111.725C204.54 111.725 203.879 111.907 203.365 112.27C202.86 112.633 202.552 113.123 202.441 113.738H198.4C198.481 112.144 199.162 110.862 200.443 109.894C201.725 108.915 203.425 108.425 205.544 108.425C207.623 108.425 209.288 108.92 210.54 109.909C211.791 110.898 212.417 112.209 212.417 113.844V125H208.148V122.518H208.057C207.613 123.365 206.937 124.036 206.029 124.531C205.121 125.015 204.147 125.257 203.107 125.257Z" fill="white"/>
<g clip-path="url(#clip0_229:2754)">
<path d="M147.03 80H83.3769C79.0414 80 74.8835 78.2777 71.8178 75.2121C68.7521 72.1464 67.0299 67.9884 67.0299 63.6529V20.1195C67.0299 18.7855 67.5598 17.5061 68.5031 16.5628C69.4464 15.6195 70.7257 15.0896 72.0597 15.0896C73.3937 15.0896 74.6731 15.6195 75.6164 16.5628C76.5597 17.5061 77.0896 18.7855 77.0896 20.1195V63.6529C77.0896 65.3204 77.752 66.9196 78.9311 68.0988C80.1102 69.2779 81.7094 69.9403 83.3769 69.9403H147.03C148.364 69.9403 149.643 70.4702 150.586 71.4135C151.53 72.3568 152.06 73.6361 152.06 74.9701C152.06 76.3041 151.53 77.5835 150.586 78.5268C149.643 79.4701 148.364 80 147.03 80ZM147.03 59.8805V16.3471C147.03 12.0115 145.308 7.85361 142.242 4.78794C139.176 1.72227 135.018 0 130.683 0H67.0299C65.6959 0 64.4165 0.529931 63.4732 1.47321C62.5299 2.4165 62 3.69586 62 5.02986C62 6.36387 62.5299 7.64323 63.4732 8.58652C64.4165 9.5298 65.6959 10.0597 67.0299 10.0597H130.683C132.35 10.0597 133.95 10.7221 135.129 11.9012C136.308 13.0803 136.97 14.6796 136.97 16.3471V59.8805C136.97 61.2145 137.5 62.4939 138.443 63.4372C139.387 64.3805 140.666 64.9104 142 64.9104C143.334 64.9104 144.613 64.3805 145.557 63.4372C146.5 62.4939 147.03 61.2145 147.03 59.8805ZM107.03 29.9403C105.04 29.9403 103.095 30.5303 101.441 31.6356C99.7867 32.741 98.4973 34.3121 97.7359 36.1503C96.9745 37.9885 96.7753 40.0112 97.1634 41.9626C97.5516 43.914 98.5097 45.7064 99.9166 47.1133C101.323 48.5202 103.116 49.4783 105.067 49.8664C107.019 50.2546 109.041 50.0554 110.88 49.294C112.718 48.5326 114.289 47.2432 115.394 45.5889C116.5 43.9346 117.09 41.9896 117.09 40C117.09 37.332 116.03 34.7733 114.143 32.8867C112.257 31.0001 109.698 29.9403 107.03 29.9403ZM107.03 19.8805C111.009 19.8805 114.899 21.0605 118.208 23.2713C121.516 25.482 124.095 28.6243 125.618 32.3006C127.141 35.977 127.539 40.0223 126.763 43.9251C125.986 47.8279 124.07 51.4128 121.256 54.2266C118.443 57.0404 114.858 58.9566 110.955 59.7329C107.052 60.5092 103.007 60.1107 99.3305 58.588C95.6541 57.0652 92.5119 54.4864 90.3011 51.1778C88.0904 47.8691 86.9104 43.9793 86.9104 40C86.9104 34.664 89.0301 29.5465 92.8033 25.7734C96.5764 22.0003 101.694 19.8805 107.03 19.8805Z" fill="white"/>
</g>
<defs>
<clipPath id="clip0_229:2754">
<rect width="90.0597" height="80" fill="white" transform="translate(62)"/>
</clipPath>
</defs>
</svg>
