<?xml version="1.0" encoding="utf-8"?>
<!-- Generator: Adobe Illustrator 17.1.0, SVG Export Plug-In . SVG Version: 6.00 Build 0)  -->
<!DOCTYPE svg PUBLIC "-//W3C//DTD SVG 1.0//EN" "http://www.w3.org/TR/2001/REC-SVG-20010904/DTD/svg10.dtd">
<svg version="1.0" id="Layer_1" xmlns="http://www.w3.org/2000/svg" xmlns:xlink="http://www.w3.org/1999/xlink" x="0px" y="0px"
	 viewBox="0 0 50 50" style="enable-background:new 0 0 50 50;" xml:space="preserve">
<path d="M43,9h-2.316L40.05,7.372C39.29,5.418,37.434,4,35.637,4H24.363c-1.795,0-3.651,1.418-4.413,3.372L19.316,9H14V8
	c0-0.552-0.448-1-1-1H6C5.448,7,5,7.448,5,8v1.296C2.058,10.165,0,12.861,0,16v21c0,3.859,3.14,7,7,7h36c3.859,0,7-3.141,7-7V16
	C50,12.14,46.859,9,43,9z M48,37c0,2.757-2.243,5-5,5H7c-2.757,0-5-2.243-5-5V16c0-2.447,1.752-4.518,4.166-4.924
	C6.647,10.995,7,10.578,7,10.09V9h5v1c0,0.552,0.448,1,1,1h7c0.412,0,0.782-0.253,0.932-0.637l0.882-2.265
	C22.318,6.802,23.53,6,24.363,6h11.274c0.834,0,2.046,0.802,2.55,2.098l0.882,2.265C39.218,10.747,39.588,11,40,11h3
	c2.757,0,5,2.243,5,5V37z M9,16c0,1.105-0.895,2-2,2c-1.105,0-2-0.895-2-2c0-1.105,0.895-2,2-2C8.105,14,9,14.895,9,16z M30,13
	c-7.168,0-13,5.832-13,13c0,7.168,5.832,13,13,13c7.168,0,13-5.832,13-13C43,18.832,37.168,13,30,13z M30,37
	c-6.065,0-11-4.935-11-11s4.935-11,11-11s11,4.935,11,11S36.065,37,30,37z"/>
</svg>
