<?xml version="1.0" encoding="utf-8"?>
<!-- Generator: Adobe Illustrator 17.0.2, SVG Export Plug-In . SVG Version: 6.00 Build 0)  -->
<!DOCTYPE svg PUBLIC "-//W3C//DTD SVG 1.0//EN" "http://www.w3.org/TR/2001/REC-SVG-20010904/DTD/svg10.dtd">
<svg version="1.0" id="Layer_1" xmlns="http://www.w3.org/2000/svg" xmlns:xlink="http://www.w3.org/1999/xlink" x="0px" y="0px"
	 width="50px" height="50px" viewBox="0 0 50 50" style="enable-background:new 0 0 50 50;" xml:space="preserve">
<path d="M47,14v-3c0-1.654-1.346-3-3-3L18.044,8.006c-0.279-0.101-0.855-1.02-1.165-1.513C16.112,5.267,15.317,4,14,4H3
	C1.346,4,0,5.346,0,7v36.982c0,0.014,0,0.028,0,0.042C0.013,45.668,1.354,47,3,47h39c1.62,0,2.945-1.291,2.998-2.899l4.985-26.918
	L50,17C50,15.346,48.654,14,47,14z M2,7c0-0.551,0.449-1,1-1l10.972-0.003c0.293,0.09,0.891,1.044,1.213,1.558
	C15.939,8.757,16.718,10,18,10h26c0.552,0,1,0.449,1,1v3H8c-1.621,0-2.945,1.292-2.999,2.899L2,33.108V7z M43.021,43.798
	c-0.008,0.037-0.013,0.073-0.017,0.111c-0.003,0.035-0.005,0.07-0.004,0.104C42.992,44.559,42.547,45,42,45H3
	c-0.526,0-0.958-0.408-0.997-0.924l4.98-26.894L7,17c0-0.551,0.449-1,1-1h39c0.525,0,0.958,0.408,0.997,0.924L43.021,43.798z"/>
</svg>
