<?xml version="1.0" encoding="utf-8"?>
<!-- Generator: Adobe Illustrator 17.1.0, SVG Export Plug-In . SVG Version: 6.00 Build 0)  -->
<!DOCTYPE svg PUBLIC "-//W3C//DTD SVG 1.0//EN" "http://www.w3.org/TR/2001/REC-SVG-20010904/DTD/svg10.dtd">
<svg version="1.0" id="Layer_1" xmlns="http://www.w3.org/2000/svg" xmlns:xlink="http://www.w3.org/1999/xlink" x="0px" y="0px"
	 viewBox="0 0 50.123 50" style="enable-background:new 0 0 50.123 50;" xml:space="preserve">
<path d="M38.725,41.587h11.398l-0.063-1.06c-0.311-5.208-4.443-6.839-7.765-8.149c-1.844-0.728-3.59-1.417-4.097-2.528
	c-0.077-0.935-0.07-1.666-0.063-2.507l0.002-0.339c0.796-0.832,1.516-2.47,1.8-3.841c0.615-0.347,1.346-1.148,1.569-2.993
	c0.109-0.923-0.146-1.646-0.513-2.14c0.503-1.74,1.467-6.042-0.266-8.83c-0.738-1.188-1.85-1.941-3.309-2.243
	c-0.836-1.014-2.388-1.565-4.456-1.565C30.591,5.436,28.684,6,27.289,7.073c-0.624-0.397-1.343-0.678-2.155-0.838
	c-0.944-1.193-2.754-1.843-5.184-1.843c-3.681,0.068-6.375,1.193-8.006,3.343c-1.933,2.548-2.292,6.41-1.069,11.484
	c-0.451,0.551-0.783,1.401-0.65,2.513c0.265,2.205,1.122,3.104,1.844,3.465c0.343,1.731,1.288,3.681,2.208,4.597l0.002,0.468
	c0.009,1.015,0.017,1.896-0.08,3.033c-0.612,1.405-2.649,2.206-4.998,3.13c-3.908,1.537-8.771,3.45-9.136,9.517L0,47h40.124
	l-0.063-1.06C39.954,44.165,39.463,42.745,38.725,41.587z M29.277,19.25c0.581-1.98,1.78-7.125-0.27-10.423
	c-0.076-0.122-0.156-0.241-0.239-0.355c1.032-0.685,2.451-1.048,4.214-1.08c1.501,0,2.646,0.374,2.989,0.976l0.244,0.427
	l0.487,0.067c1.076,0.15,1.837,0.606,2.327,1.394c1.262,2.031,0.52,5.821-0.118,7.741l-0.157,0.73l0.576,0.432
	c0.003,0.001,0.258,0.2,0.189,0.772c-0.138,1.144-0.488,1.473-0.562,1.497l-0.821,0.07l-0.088,0.819
	c-0.161,1.499-1.08,3.108-1.374,3.336l-0.535,0.281l-0.005,1.39c-0.008,0.898-0.016,1.746,0.084,2.852l0.059,0.259
	c0.75,2.014,2.952,2.883,5.283,3.803c2.786,1.1,5.658,2.232,6.356,5.349H36.956c-1.764-1.49-4.006-2.376-5.999-3.163
	c-2.339-0.923-4.367-1.725-4.979-3.13c-0.096-1.135-0.088-2.016-0.079-3.028l0.003-0.479c0.897-0.917,1.821-2.866,2.157-4.602
	c0.704-0.364,1.579-1.259,1.842-3.453C30.033,20.641,29.715,19.802,29.277,19.25z M2.19,45c0.756-3.968,4.303-5.362,7.742-6.715
	c2.739-1.077,5.326-2.095,6.187-4.408l0.059-0.259c0.118-1.306,0.109-2.311,0.1-3.375l-0.005-0.925l0.018-0.595l-0.536-0.28
	c-0.438-0.298-1.607-2.315-1.8-4.119l-0.087-0.823l-0.825-0.068c-0.128-0.011-0.645-0.371-0.833-1.94
	c-0.096-0.807,0.296-1.091,0.298-1.092l0.635-0.386l-0.187-0.719c-1.214-4.671-1.013-8.251,0.582-10.352
	c1.243-1.638,3.413-2.497,6.432-2.552c1.877,0,3.265,0.469,3.712,1.253l0.244,0.428l0.488,0.068
	c1.336,0.186,2.284,0.755,2.897,1.742c1.536,2.472,0.647,7.04-0.12,9.349l-0.211,0.747l0.64,0.422
	c0.004,0.003,0.396,0.286,0.298,1.093c-0.188,1.569-0.705,1.93-0.833,1.94l-0.824,0.068l-0.088,0.822
	c-0.194,1.814-1.328,3.829-1.73,4.11l-0.535,0.28l-0.005,1.534c-0.009,1.062-0.018,2.066,0.1,3.37l0.059,0.259
	c0.86,2.312,3.437,3.33,6.166,4.407c1.935,0.764,3.903,1.542,5.387,2.789c0.105,0.189,0.271,0.341,0.471,0.429
	c0.904,0.896,1.572,2.019,1.854,3.498H2.19z"/>
</svg>
