<?xml version="1.0" encoding="utf-8"?>
<!-- Generator: Adobe Illustrator 17.0.2, SVG Export Plug-In . SVG Version: 6.00 Build 0)  -->
<!DOCTYPE svg PUBLIC "-//W3C//DTD SVG 1.0//EN" "http://www.w3.org/TR/2001/REC-SVG-20010904/DTD/svg10.dtd">
<svg version="1.0" id="Layer_1" xmlns="http://www.w3.org/2000/svg" xmlns:xlink="http://www.w3.org/1999/xlink" x="0px" y="0px"
	 width="50px" height="50px" viewBox="0 0 50 50" style="enable-background:new 0 0 50 50;" xml:space="preserve">
<g>
	<circle cx="43" cy="21" r="2"/>
	<path d="M15,36h20c0.553,0,1-0.447,1-1s-0.447-1-1-1H15c-0.552,0-1,0.447-1,1S14.448,36,15,36z"/>
	<path d="M47,14h-6V0H9v14H3c-1.654,0-3,1.346-3,3v21c0,1.654,1.346,3,3,3h6v9h32v-9h6c1.654,0,3-1.346,3-3V17
		C50,15.346,48.654,14,47,14z M11,2h28v12H11V2z M39,48H11V30h28V48z M48,38c0,0.552-0.448,1-1,1h-6V28H9v11H3c-0.551,0-1-0.448-1-1
		V17c0-0.551,0.449-1,1-1h44c0.552,0,1,0.449,1,1V38z"/>
	<path d="M15,40h16c0.553,0,1-0.447,1-1s-0.447-1-1-1H15c-0.552,0-1,0.447-1,1S14.448,40,15,40z"/>
	<path d="M15,44h20c0.553,0,1-0.447,1-1s-0.447-1-1-1H15c-0.552,0-1,0.447-1,1S14.448,44,15,44z"/>
</g>
</svg>
